<?xml version="1.0" encoding="utf-8"?>
<!-- Generator: Adobe Illustrator 22.0.0, SVG Export Plug-In . SVG Version: 6.00 Build 0)  -->
<svg version="1.1" id="레이어_1" xmlns="http://www.w3.org/2000/svg" xmlns:xlink="http://www.w3.org/1999/xlink" x="0px"
	 y="0px" viewBox="0 0 28.6 17" style="enable-background:new 0 0 28.6 17;" xml:space="preserve">
<style type="text/css">
	.st0{fill:#DBDBDB;}
</style>
	<g>
	<rect x="0.8" y="0.5" class="st0" width="2.4" height="3.3"/>
		<rect x="0.8" y="13.3" class="st0" width="2.4" height="3.3"/>
		<rect x="0.8" y="9" class="st0" width="2.4" height="3.3"/>
		<rect x="0.8" y="4.7" class="st0" width="2.4" height="3.3"/>
		<rect x="4.9" y="0.5" class="st0" width="2.4" height="3.3"/>
		<rect x="4.9" y="13.3" class="st0" width="2.4" height="3.3"/>
		<rect x="4.9" y="9" class="st0" width="2.4" height="3.3"/>
		<rect x="4.9" y="4.7" class="st0" width="2.4" height="3.3"/>
		<rect x="4.9" y="0.5" class="st0" width="2.4" height="3.3"/>
		<rect x="9" y="0.5" class="st0" width="2.4" height="3.3"/>
		<rect x="9" y="13.3" class="st0" width="2.4" height="3.3"/>
		<rect x="9" y="9" class="st0" width="2.4" height="3.3"/>
		<rect x="9" y="4.7" class="st0" width="2.4" height="3.3"/>
		<rect x="9" y="0.5" class="st0" width="2.4" height="3.3"/>
		<rect x="13.1" y="0.5" class="st0" width="2.4" height="3.3"/>
		<rect x="13.1" y="13.3" class="st0" width="2.4" height="3.3"/>
		<rect x="13.1" y="9" class="st0" width="2.4" height="3.3"/>
		<rect x="13.1" y="4.7" class="st0" width="2.4" height="3.3"/>
		<rect x="17.2" y="0.5" class="st0" width="2.4" height="3.3"/>
		<rect x="17.2" y="13.3" class="st0" width="2.4" height="3.3"/>
		<rect x="17.2" y="9" class="st0" width="2.4" height="3.3"/>
		<rect x="17.2" y="4.7" class="st0" width="2.4" height="3.3"/>
		<rect x="17.2" y="0.5" class="st0" width="2.4" height="3.3"/>
		<rect x="21.3" y="0.5" class="st0" width="2.4" height="3.3"/>
		<rect x="21.3" y="13.3" class="st0" width="2.4" height="3.3"/>
		<rect x="21.3" y="9" class="st0" width="2.4" height="3.3"/>
		<rect x="21.3" y="4.7" class="st0" width="2.4" height="3.3"/>
		<rect x="21.3" y="0.5" class="st0" width="2.4" height="3.3"/>
		<rect x="25.4" y="0.5" class="st0" width="2.4" height="3.3"/>
		<rect x="25.4" y="13.3" class="st0" width="2.4" height="3.3"/>
		<rect x="25.4" y="9" class="st0" width="2.4" height="3.3"/>
		<rect x="25.4" y="4.7" class="st0" width="2.4" height="3.3"/>
		<rect x="25.4" y="0.5" class="st0" width="2.4" height="3.3"/>
</g>
</svg>
